# xmcd
#
# Track frame offsets: 
#        150
#        17922
#        37562
#        51378
#
# Disc length: 903 seconds
#
# Revision: 4
# Processed by: cddbd v1.5.2PL0 Copyright (c) Steve Scherf et al.
# Submitted via: ExactAudioCopy v0.99pb5
#
DISCID=27038504
DTITLE=Ewigheim - Heimwege
DYEAR=2004
DGENRE=Dark Metal
TTITLE0=Im Leib der Wahrheit
TTITLE1=Der Bauer im Ruin
TTITLE2=Nur meine Liebe zählt
TTITLE3=Wenn Schweine fliegen
EXTD=
EXTT0=
EXTT1=
EXTT2=
EXTT3=Numb Inversion Version
PLAYORDER=
